<svg id="Layer_1" data-name="Layer 1" xmlns="http://www.w3.org/2000/svg" xmlns:xlink="http://www.w3.org/1999/xlink" viewBox="0 0 1488.52 184.78"><defs><style>.cls-1{fill:none;}.cls-2{clip-path:url(#clip-path);}.cls-3{fill:#231f20;}</style><clipPath id="clip-path" transform="translate(-106.14 -308.39)"><rect class="cls-1" x="106.14" y="308.39" width="1488.52" height="184.78"/></clipPath></defs><title>a</title><g class="cls-2"><path class="cls-3" d="M1475,385.31v-0.51c0-30.94,18.46-54.7,47.18-54.7,28.38,0,47.18,23.59,47.18,54.7v0.51H1475Zm48.38,107.86c38.8,0,62-21.71,68.72-50.43h-25.47c-5.64,17.09-19.83,28.72-42.39,28.72-31.11,0-49.23-24.44-49.23-60.85V407h119.66V391.29c0-49.74-26.67-82.9-72.48-82.9-46.49,0-72.48,33.5-72.48,80.85v20.51c0,50.6,27.69,83.42,73.67,83.42m-260.85-2.91h25.13V380.69c0-25.64,14-49.23,46.84-49.23,28,0,46,16.92,46,47.52V490.26h25.13v-115c0-43.42-27.52-66.84-64.44-66.84-29.4,0-46.15,15.38-52.82,27.35h-0.68V311.29h-25.13v179Zm-54.36-179h-25.3V422.23c0,29.4-18.63,47.86-46.67,47.86-25.3,0-45-12.14-45-46V311.29h-25.13v120c0,40.85,26.5,61.88,63.42,61.88,29.06,0,46.15-12.82,52.48-27.35h1v24.44h25.13v-179Zm-433,179h25.13V375.91c0-27.86,17.61-44.44,41.54-44.44,25.64,0,40.85,15.9,40.85,44.44V490.26h25.13V375.91c0-25.3,14.87-44.44,42.05-44.44,26.67,0,40.51,17.61,40.51,41.71V490.26h25.13V368.56c0-37.26-22.73-60.17-60.17-60.17-29.74,0-48.37,14.19-55,29.57h-1c-7-17.78-23.76-29.57-52.14-29.57-24.1,0-39.83,13-45.64,25.3h-1.2V311.29H775.18v179Zm-293.67,0h25.13V375.91c0-27.86,17.61-44.44,41.54-44.44,25.64,0,40.85,15.9,40.85,44.44V490.26h25.13V375.91c0-25.3,14.87-44.44,42.05-44.44,26.67,0,40.51,17.61,40.51,41.71V490.26h25.13V368.56c0-37.26-22.73-60.17-60.17-60.17-29.74,0-48.38,14.19-55,29.57h-1c-7-17.78-23.76-29.57-52.14-29.57-24.1,0-39.83,13-45.64,25.3h-1.2V311.29H481.51v179ZM359,330.44c31.79,0,50.43,23.76,50.43,62.56v15c0,39-18.63,62.73-50.43,62.73-32,0-50.6-23.93-50.6-62.73V393c0-38.8,18.63-62.56,50.6-62.56m0-22.05c-48.72,0-75.72,35.38-75.72,83.42v17.61c0,48.2,26.84,83.76,75.72,83.76s75.55-35.55,75.55-83.76V391.8c0-48-27-83.42-75.55-83.42M106.14,409.58c0,47.52,26.32,83.59,73,83.59,41.37,0,62.39-22.22,68.37-50.77H222.37c-3.42,14.87-17.09,27.86-41.2,27.86-30.43,0-49.91-23.76-49.91-60.51V391.8c0-37.95,18.46-60.68,49.57-60.68a41.31,41.31,0,0,1,40.34,30.94H246.3c-1.71-26.15-26.15-53.67-67.18-53.67-45.64,0-73,33.67-73,82v19.14Z" transform="translate(-106.14 -308.39)"/></g></svg>